<?xml version="1.0" encoding="utf-8" ?>
<svg xmlns="http://www.w3.org/2000/svg" xmlns:xlink="http://www.w3.org/1999/xlink" width="599" height="460">
	<defs>
		<linearGradient id="gradient_0" gradientUnits="userSpaceOnUse" x1="479.27112" y1="113.79768" x2="286.79791" y2="125.23307">
			<stop offset="0" stop-color="#440107"/>
			<stop offset="1" stop-color="#941524"/>
		</linearGradient>
	</defs>
	<path fill="url(#gradient_0)" d="M283.646 83.1184Q284.164 81.8171 284.714 80.5291Q285.264 79.241 285.845 77.9669Q286.427 76.6928 287.04 75.4335Q287.652 74.1741 288.296 72.9303Q288.94 71.6865 289.614 70.459Q290.289 69.2315 290.993 68.021Q291.698 66.8105 292.432 65.6178Q293.166 64.4251 293.929 63.2509Q294.693 62.0767 295.485 60.9217Q296.277 59.7667 297.098 58.6316Q297.918 57.4966 298.767 56.3821Q299.615 55.2677 300.491 54.1745Q301.366 53.0814 302.268 52.0102Q303.171 50.939 304.099 49.8905Q305.028 48.8419 305.982 47.8166Q306.936 46.7913 307.916 45.7899Q308.895 44.7885 309.898 43.8116Q310.902 42.8347 311.93 41.8829Q312.957 40.9311 314.008 40.005Q315.059 39.0788 316.132 38.1789Q317.205 37.2791 318.3 36.406Q319.396 35.5329 320.512 34.6871Q321.628 33.8413 322.765 33.0234Q323.902 32.2055 325.059 31.4159Q326.216 30.6263 327.392 29.8655Q328.568 29.1048 329.763 28.3733Q330.957 27.6418 332.169 26.9401Q333.382 26.2383 334.611 25.5668Q335.84 24.8952 337.085 24.2542Q338.331 23.6132 339.592 23.0031Q340.852 22.3931 342.128 21.8144Q343.404 21.2357 344.693 20.6887Q345.881 20.2 347.081 19.7402Q348.281 19.2804 349.492 18.8498Q350.702 18.4192 351.923 18.018Q353.144 17.6169 354.374 17.2455Q355.604 16.874 356.843 16.5325Q358.081 16.191 359.328 15.8796Q360.575 15.5682 361.828 15.2871Q363.082 15.006 364.342 14.7553Q365.603 14.5047 366.869 14.2847Q368.135 14.0646 369.406 13.8753Q370.676 13.686 371.952 13.5276Q373.227 13.3692 374.505 13.2417Q375.784 13.1142 377.065 13.0177Q378.347 12.9212 379.63 12.8558Q380.913 12.7904 382.198 12.7561Q383.482 12.7218 384.767 12.7187Q386.052 12.7155 387.337 12.7435Q388.621 12.7715 389.905 12.8306Q391.189 12.8897 392.47 12.9799Q393.752 13.0701 395.031 13.1913Q396.311 13.3125 397.586 13.4647Q398.862 13.6169 400.134 13.7999Q401.406 13.983 402.673 14.1968Q403.94 14.4106 405.202 14.6551Q406.463 14.8995 407.718 15.1745Q408.973 15.4494 410.222 15.7547Q411.47 16.06 412.71 16.3954Q413.951 16.7308 415.182 17.0962Q416.414 17.4616 417.637 17.8568Q418.86 18.2519 420.072 18.6765Q421.285 19.1012 422.487 19.5551Q423.689 20.009 424.88 20.4919Q425.895 20.9014 426.899 21.336Q427.903 21.7706 428.896 22.2301Q429.888 22.6896 430.87 23.1738Q431.851 23.6579 432.819 24.1663Q433.788 24.6747 434.744 25.2071Q435.7 25.7395 436.642 26.2955Q437.584 26.8516 438.512 27.431Q439.44 28.0103 440.354 28.6126Q441.267 29.2149 442.165 29.8398Q443.063 30.4647 443.945 31.1118Q444.827 31.7588 445.693 32.4277Q446.559 33.0965 447.408 33.7868Q448.256 34.477 449.088 35.1881Q449.919 35.8993 450.732 36.6309Q451.546 37.3626 452.341 38.1143Q453.136 38.866 453.911 39.6373Q454.687 40.4085 455.444 41.1989Q456.2 41.9893 456.937 42.7983Q457.673 43.6072 458.389 44.4343Q459.105 45.2614 459.801 46.1061Q460.496 46.9507 461.17 47.8125Q461.844 48.6742 462.496 49.5524Q463.148 50.4307 463.778 51.3249Q464.409 52.2192 465.016 53.1288Q465.624 54.0385 466.209 54.963Q466.794 55.8876 467.355 56.8264Q467.917 57.7652 468.455 58.7177Q468.993 59.6703 469.507 60.6359Q470.021 61.6015 470.511 62.5797Q471.001 63.5578 471.466 64.5479Q471.932 65.5379 472.372 66.5393Q472.813 67.5406 473.228 68.5526C481.253 87.6524 480.722 112.254 472.899 131.341C455.078 174.818 409.24 206.122 367.257 223.604C360.176 226.552 352.788 229.263 344.989 228.512C331.041 227.273 314.852 224.025 301.925 218.603L340.117 201.936C342.118 199.978 349.881 196.435 352.711 194.763C358.465 191.363 364.267 187.437 369.61 183.419C380.352 175.34 391.146 165.338 393.034 151.258C394.088 143.398 391.651 134.935 386.809 128.67Q386.342 128.06 385.846 127.474Q385.349 126.889 384.823 126.329Q384.298 125.769 383.745 125.235Q383.192 124.702 382.614 124.198Q382.035 123.693 381.431 123.218Q380.828 122.743 380.201 122.298Q379.575 121.854 378.927 121.442Q378.279 121.029 377.612 120.65Q376.944 120.271 376.258 119.925Q375.572 119.58 374.87 119.269Q374.167 118.958 373.45 118.683Q372.733 118.408 372.003 118.169Q371.273 117.931 370.532 117.729Q369.791 117.527 369.041 117.362Q368.291 117.197 367.533 117.071Q366.776 116.944 366.013 116.855C352.054 115.091 338.659 121.63 328.507 130.728C325.161 133.727 322.147 137.438 318.578 140.133C317.724 140.777 317.26 140.868 316.205 140.707C313.132 138.564 303.541 118.387 300.486 113.478C297.927 110.426 295.71 106.91 293.346 103.69L294.955 103.572C295.144 103.034 295.353 102.52 295.58 101.998C294.376 97.408 286.456 87.8736 283.646 83.1184Z"/>
	<path fill="#B7262D" d="M340.117 201.936L340.226 202.401C336.317 205.27 327.575 207.705 324.696 210.093L324.881 209.965L324.684 210.378L324.966 210.417C325.791 210.54 326.379 210.694 327.122 211.07C327.907 210.95 328.578 210.751 329.317 210.461C330.125 210.612 330.471 210.705 330.998 211.372C332.652 213.467 333.326 218.073 332.827 220.642C332.444 222.612 331.475 223.849 329.854 224.977L329.927 225.422C332.134 226.853 335.244 226.632 337.739 226.854C340.622 227.111 343.511 227.839 346.436 228.113L346.605 228.033L346.883 228.23C346.814 228.235 346.744 228.238 346.676 228.244C346.11 228.297 345.548 228.413 344.989 228.512C331.041 227.273 314.852 224.025 301.925 218.603L340.117 201.936Z"/>
	<path d="M295.58 101.998C297.283 105.043 300.69 110.057 300.486 113.478C297.927 110.426 295.71 106.91 293.346 103.69L294.955 103.572C295.144 103.034 295.353 102.52 295.58 101.998Z"/>
	<defs>
		<linearGradient id="gradient_1" gradientUnits="userSpaceOnUse" x1="389.78406" y1="158.927" x2="112.08649" y2="154.34016">
			<stop offset="0" stop-color="#021F42"/>
			<stop offset="1" stop-color="#033661"/>
		</linearGradient>
	</defs>
	<path fill="url(#gradient_1)" d="M390.325 242.174C356.099 254.611 314.444 260.43 278.077 261.04C242.752 261.632 207.444 257.478 175.43 241.7C163.998 236.066 153.091 229 143.915 220.108C124.417 201.213 112.106 176.446 111.72 149.038C111.353 122.897 121.088 99.1286 139.275 80.4447C157.088 62.144 182.251 52.4632 207.589 52.1468C239.558 51.7476 260.925 60.9255 283.646 83.1184C286.456 87.8736 294.376 97.408 295.58 101.998C295.353 102.52 295.144 103.034 294.955 103.572L293.346 103.69C279.16 87.1902 263.084 76.1845 240.778 74.5131C224.501 73.2935 207.486 78.6249 195.127 89.2841C185.327 97.7365 178.269 109.951 177.276 122.977C176.013 139.566 183.54 153.212 194.095 165.39C225.248 201.33 277.169 220.874 322.747 230.235C332.217 232.18 341.764 233.473 351.337 234.787C360.734 236.077 370.18 237.341 379.644 238.005L386.823 238.441C387.855 239.71 388.919 241.322 390.325 242.174Z"/>
	<path fill="#022449" d="M233.467 323.357C235.512 326.359 236.754 330.559 238.398 333.843Q248.585 353.844 257.799 374.312C262.631 384.787 267.349 395.353 272.289 405.773C276.107 413.825 280.393 421.911 283.638 430.201Q291.028 379.469 297.408 328.601C301.414 328.198 305.582 328.34 309.608 328.388C312.568 332.424 314.558 337.586 316.69 342.098Q322.867 355.121 328.831 368.242C332.059 375.192 335.392 382.083 338.547 389.069C340.044 392.384 342.031 395.997 342.795 399.562C345.068 392.41 373.198 331.869 375.909 329.043C377.291 327.602 386.729 328.32 388.837 328.33C390.439 332.515 390.98 337.338 391.915 341.709L397.677 368.608L405.725 404.262C408.002 414.068 410.562 424.126 411.886 434.103C406.499 434.544 400.676 433.998 395.237 433.946C394.185 431.07 393.624 427.95 392.944 424.966L389.566 409.769C388.151 401.976 386.106 394.312 384.394 386.583C382.569 378.339 381.173 368.959 377.967 361.186C376.648 364.595 374.786 367.858 373.141 371.12Q370.554 376.371 368.136 381.702C364.787 388.926 361.199 396.034 357.842 403.246C353.317 412.966 348.927 422.863 343.725 432.246C343.309 432.996 342.883 433.798 342.075 434.17C341.419 433.84 341.062 433.155 340.72 432.532C335.851 423.643 332.292 413.772 328.142 404.517C322.093 391.029 315.416 377.64 310.349 363.751L300.019 434.065C289.405 434.923 276.962 434.001 266.125 434.02C262.358 427.971 259.698 420.726 256.783 414.201C250.961 413.767 244.954 414.066 239.105 414.055L205.752 413.947C203.306 417.723 197.848 431.816 195.048 433.517C193.416 434.509 180.071 434.184 177.93 433.571C177.921 433.48 177.901 433.39 177.901 433.299C177.903 432.604 178.206 431.887 178.5 431.267C184.424 418.789 190.902 406.477 197.178 394.167L214.496 359.631Q220.396 347.749 226.482 335.962C228.574 331.879 230.579 326.906 233.467 323.357ZM214.667 398.5Q223.406 398.329 232.146 398.458L249.883 398.541C248.495 394.345 234.321 361.585 232.591 360.388C227.621 373.433 220.376 385.749 214.667 398.5Z"/>
	<path fill="#022449" d="M505.024 328.843C515.103 328.176 525.515 328.658 535.631 328.664C551.402 328.673 567.22 328.47 582.983 328.944C583.125 329.194 583.193 329.283 583.281 329.539C583.971 331.532 583.692 342.475 582.905 344.362C575.266 343.955 567.566 344.024 559.915 343.974Q541.028 343.83 522.142 344.05C522.196 344.173 522.255 344.295 522.305 344.42C523.025 346.252 523.056 370.836 522.39 372.456C528.207 371.767 534.526 372.219 540.403 372.224Q556.173 372.165 571.942 372.357C572.035 372.549 572.178 372.819 572.241 373.036C572.891 375.269 572.709 385.968 571.715 388.009Q548.086 387.81 524.456 387.915L522.554 387.947C522.946 391.587 523.567 417.087 522.463 418.999C542.985 418.534 563.621 418.692 584.145 419.013C584.275 419.282 584.432 419.552 584.515 419.84C585.106 421.881 585.056 432.692 584.077 434.418C580.366 434.016 576.402 434.197 572.665 434.197L554.029 434.223C537.578 434.244 521.075 433.916 504.632 434.126C505.376 432.096 504.526 419.883 504.528 416.711L504.684 362.81L504.587 340.221C504.584 336.843 504.387 333.326 504.596 329.961C504.629 329.428 504.709 329.252 505.024 328.843Z"/>
	<path fill="#022449" d="M476.467 328.873C482.395 328.424 488.349 328.728 494.281 328.364C494.475 328.686 494.61 328.968 494.711 329.334C495.395 331.831 494.887 354.898 494.886 359.125L494.917 406.773C494.926 414.985 495.122 423.243 494.911 431.448C494.884 432.504 494.89 433.304 494.331 434.235C492.983 434.396 491.489 434.283 490.124 434.293Q483.52 434.202 476.916 434.252C476.955 434.128 476.996 434.005 477.032 433.881C477.486 432.292 476.976 416.211 476.963 413.19C476.928 405.225 477.287 397.151 476.95 389.199C476.922 388.536 476.845 388.172 476.514 387.595C464.02 387.209 451.446 388.065 438.975 387.505C439.251 402.961 439.462 418.558 438.915 434.003C433.008 434.136 427.091 434.113 421.188 434.405C420.776 425.851 420.981 417.219 420.981 408.654L421.078 361.892C421.079 357.482 420.621 331.598 421.282 329.325C421.447 328.757 421.568 328.839 422.057 328.574C427.69 328.208 433.412 328.51 439.063 328.385C439.596 334.2 439.245 340.293 439.209 346.135Q439.138 359.187 439.344 372.237C444.171 371.875 449.12 372.132 453.965 372.146Q464.981 372.099 475.996 372.246C476.095 372.069 476.119 372.04 476.196 371.82C477.006 369.521 477.142 330.443 476.467 328.873Z"/>
	<path fill="#022449" d="M71.2671 332.59C71.2042 335.876 71.7799 339.23 72.2889 342.472C70.6633 344.408 66.9322 348.327 67.2756 350.99C67.2914 351.112 67.3149 351.234 67.3346 351.355L67.1405 353.103C66.8986 355.344 67.5865 356.982 68.9984 358.673C72.1587 362.457 77.4747 364.559 81.9623 366.35C102.686 374.62 128.794 378.846 126.445 407.607C125.845 414.961 122.144 421.249 116.509 425.932Q114.991 427.193 113.331 428.262Q111.672 429.33 109.895 430.19Q108.119 431.05 106.252 431.689Q104.384 432.328 102.453 432.737C95.7488 434.195 88.8521 433.99 82.0341 433.985L63.7245 433.975C56.2885 433.969 48.4496 434.448 41.0664 433.81C43.3928 430.187 49.8527 422.577 53.2924 420.106C54.2316 419.432 55.2493 419.033 56.3692 418.783C59.4961 418.083 63.1287 418.514 66.33 418.605C74.4741 418.837 93.7999 419.856 101.022 417.469C103.599 416.617 105.925 415.005 107.394 412.694C109.334 409.642 109.924 405.282 109.135 401.782C108.059 397.01 104.377 393.5 100.355 391.004C90.6215 384.963 78.8877 383.295 68.7623 378.189Q65.4703 376.541 62.4327 374.461C60.9864 373.459 57.1959 370.003 55.8528 369.769Q54.6148 367.957 53.708 365.958Q52.8012 363.959 52.2528 361.834C50.6651 355.635 51.0932 348.689 54.4058 343.118C58.3503 336.484 64.147 334.383 71.2671 332.59Z"/>
	<path fill="#B7262D" d="M62.5842 329.528C62.9483 326.758 63.8135 324.432 65.4096 322.124C68.5219 317.624 73.411 314.358 78.8298 313.424C82.1749 312.847 85.9041 313.276 88.7057 315.312C91.4895 317.336 93.1494 320.837 93.6759 324.17C93.8488 325.98 93.9371 327.639 93.4606 329.416C101.251 328.562 109.182 329.665 116.976 329.111C114.97 332.38 108.061 340.57 105.161 343.057C104.131 343.94 103.004 344.628 101.677 344.969C97.6827 345.996 89.7191 344.517 84.4247 345.412C78.7638 348.486 73.6018 344.938 67.3346 351.355C67.3149 351.234 67.2914 351.112 67.2756 350.99C66.9322 348.327 70.6633 344.408 72.2889 342.472C71.7799 339.23 71.2042 335.876 71.2671 332.59C64.147 334.383 58.3503 336.484 54.4058 343.118C51.0932 348.689 50.6651 355.635 52.2528 361.834Q52.8012 363.959 53.708 365.958Q54.6148 367.957 55.8528 369.769C53.2761 374.411 49.6121 377.609 48.0837 382.957C39.9464 377.822 32.6093 371.54 29.5854 362.047C27.3891 355.152 27.7239 346.696 31.1307 340.238C34.2948 334.24 39.942 329.937 46.3781 327.946C52.0968 326.176 57.3309 326.787 62.5842 329.528Z"/>
	<path fill="#022449" d="M93.4606 329.416C101.251 328.562 109.182 329.665 116.976 329.111C114.97 332.38 108.061 340.57 105.161 343.057C104.131 343.94 103.004 344.628 101.677 344.969C97.6827 345.996 89.7191 344.517 84.4247 345.412C84.1363 345.308 83.7186 345.192 83.4774 345.007C82.853 344.527 82.6999 343.84 82.6034 343.09C82.4718 342.067 82.8357 340.653 83.4216 339.807C84.1353 338.776 85.6646 338.221 86.5647 337.304C88.3001 335.536 89.7515 333.024 91.1593 330.974C91.818 330.015 92.3603 329.802 93.4606 329.416Z"/>
	<path fill="#8E1B28" d="M93.6759 324.17C93.8488 325.98 93.9371 327.639 93.4606 329.416C92.3603 329.802 91.818 330.015 91.1593 330.974C89.7515 333.024 88.3001 335.536 86.5647 337.304C85.6646 338.221 84.1353 338.776 83.4216 339.807C82.8357 340.653 82.4718 342.067 82.6034 343.09C82.6999 343.84 82.853 344.527 83.4774 345.007C83.7186 345.192 84.1363 345.308 84.4247 345.412C78.7638 348.486 73.6018 344.938 67.3346 351.355C67.3149 351.234 67.2914 351.112 67.2756 350.99C66.9322 348.327 70.6633 344.408 72.2889 342.472C71.7799 339.23 71.2042 335.876 71.2671 332.59C75.8598 330.567 89.1723 331.197 91.5793 329.45C91.7269 328.551 91.9332 327.954 92.4263 327.186L92.4965 327.791L92.8323 328.01L92.6407 328.178L92.787 328.695C93.4064 327.521 93.4711 325.509 93.6759 324.17Z"/>
	<defs>
		<linearGradient id="gradient_2" gradientUnits="userSpaceOnUse" x1="323.57068" y1="172.41402" x2="266.56708" y2="168.20479">
			<stop offset="0" stop-color="#55040D"/>
			<stop offset="1" stop-color="#C80E24"/>
		</linearGradient>
	</defs>
	<path fill="url(#gradient_2)" d="M308.044 144.841C308.216 144.821 308.389 144.802 308.562 144.793C312.78 144.586 317.039 145.747 320.179 148.687C323.261 151.573 324.877 156.23 325.02 160.376C325.447 172.848 314.652 181.166 306.37 188.751C303 191.836 299.865 195.004 296.76 198.36C293.705 195.239 291.194 191.745 287.993 188.71C280.558 181.536 268.444 174.768 266.871 163.556C266.262 159.211 267.175 154.739 269.879 151.23C272.607 147.691 276.44 145.763 280.829 145.206C287.594 144.347 291.138 146.166 296.313 150.147C300.218 147.208 303.173 145.584 308.044 144.841Z"/>
	<path fill="#022449" d="M151.399 328.541C156.209 328.371 161.027 328.621 165.837 328.352C166.128 334.312 165.926 340.353 165.911 346.322L165.905 376.732L165.934 415.848C165.933 419.34 165.844 422.837 165.867 426.328C165.877 427.92 166.122 429.535 166.069 431.12C166.04 431.978 165.878 432.691 165.499 433.463C164.626 434.148 164.044 434.003 162.985 434.033C158.034 433.986 152.994 433.743 148.055 434.105C147.346 429.852 147.732 425.078 147.745 420.767L147.808 398.286C147.829 375.086 147.326 351.876 147.499 328.68L151.399 328.541Z"/>
	<path fill="#022449" d="M392.229 247.189C394.582 247.006 396.971 247.491 398.942 248.823Q399.334 249.093 399.698 249.402Q400.061 249.71 400.391 250.054Q400.721 250.398 401.015 250.773Q401.309 251.148 401.563 251.551Q401.818 251.954 402.03 252.38Q402.242 252.807 402.411 253.253Q402.579 253.698 402.701 254.159Q402.824 254.619 402.899 255.09Q402.997 255.649 403.037 256.216Q403.077 256.782 403.059 257.35Q403.041 257.917 402.965 258.48Q402.889 259.043 402.757 259.595Q402.624 260.147 402.436 260.683Q402.247 261.219 402.005 261.732Q401.763 262.246 401.47 262.733Q401.177 263.219 400.836 263.673C398.983 266.174 396.487 267.501 393.448 267.95C390.758 268.014 388.315 267.786 386.021 266.234C383.915 264.809 382.584 262.604 382.109 260.123C381.563 257.265 381.91 254.277 383.604 251.853C385.619 248.968 388.917 247.795 392.229 247.189Z"/>
	<path d="M504.395 442.772C502.897 443.464 444.395 442.999 437.582 442.996L217.031 442.817L99.0932 442.955C76.9388 442.964 54.7315 443.394 32.5845 442.892C33.7029 442.405 64.5619 442.732 68.1306 442.654C57.759 441.709 46.8816 443.287 36.5681 442.345C48.0969 441.679 59.9287 442.209 71.478 442.262L131.315 442.371L322.208 442.421C356.277 442.609 390.371 441.961 424.436 442.269C432.339 442.34 440.248 442.206 448.152 442.234C451.361 442.246 454.884 441.973 458.059 442.35L458.509 442.408C455.778 442.858 452.618 442.574 449.835 442.569C444.045 442.732 438.189 442.484 432.385 442.562C424.944 442.624 417.527 442.394 410.085 442.569C417.445 443.167 424.947 442.532 432.33 442.655C438.14 442.728 444.046 442.419 449.835 442.642Q457.735 442.699 465.635 442.602L483.924 442.677C485.874 442.682 488.296 443.027 490.194 442.671C494.692 442.697 499.719 443.289 504.15 442.634L504.395 442.772Z"/>
	<path d="M386.823 238.441C390.647 238.758 394.597 239 398.369 239.716C395.701 240.609 393.051 241.47 390.325 242.174C388.919 241.322 387.855 239.71 386.823 238.441Z"/>
	<path d="M465.591 442.458C470.316 442.293 502.559 441.777 504.144 442.453C499.496 442.465 494.835 442.408 490.194 442.671C488.296 443.027 485.874 442.682 483.924 442.677L465.635 442.602L465.591 442.458Z"/>
	<path d="M504.144 442.453C509.583 442.057 515.446 442.029 520.848 442.762C515.464 442.938 509.761 443.274 504.395 442.772L504.15 442.634L504.144 442.453Z"/>
	<path d="M432.33 442.655C424.947 442.532 417.445 443.167 410.085 442.569C417.527 442.394 424.944 442.624 432.385 442.562L432.33 442.655Z"/>
	<path d="M490.194 442.671C494.835 442.408 499.496 442.465 504.144 442.453L504.15 442.634C499.719 443.289 494.692 442.697 490.194 442.671Z"/>
	<path d="M432.385 442.562C438.189 442.484 444.045 442.732 449.835 442.569L449.835 442.642C444.046 442.419 438.14 442.728 432.33 442.655L432.385 442.562Z"/>
	<path d="M458.509 442.408C460.863 442.38 463.242 442.277 465.591 442.458L465.635 442.602Q457.735 442.699 449.835 442.642L449.835 442.569C452.618 442.574 455.778 442.858 458.509 442.408Z"/>
</svg>
