<?xml version="1.0" standalone="no"?>
<!DOCTYPE svg PUBLIC "-//W3C//DTD SVG 20010904//EN"
 "http://www.w3.org/TR/2001/REC-SVG-20010904/DTD/svg10.dtd">
<svg version="1.0" xmlns="http://www.w3.org/2000/svg"
 width="512.000000pt" height="512.000000pt" viewBox="0 0 512.000000 512.000000"
 preserveAspectRatio="xMidYMid meet">

<g transform="translate(0.000000,512.000000) scale(0.100000,-0.100000)"
fill="#000000" stroke="none">
<path d="M3532 5106 c-112 -37 -184 -127 -202 -256 -12 -87 -29 -114 -84 -135
-38 -15 -47 -15 -77 -2 -19 8 -48 26 -66 41 -88 74 -216 91 -315 43 -51 -25
-190 -155 -214 -200 -10 -17 -13 -16 -55 7 -24 13 -73 35 -109 47 -63 23 -76
23 -501 27 -424 3 -437 3 -492 -18 -73 -27 -156 -103 -188 -170 -25 -52 -27
-54 -107 -65 -144 -19 -269 -157 -280 -306 -4 -58 -2 -69 17 -88 26 -26 75
-27 100 -2 11 11 23 37 26 58 12 69 25 99 58 133 39 40 74 55 149 64 75 9 116
38 153 108 37 70 60 95 107 119 35 18 64 19 431 19 432 0 453 -2 570 -61 82
-42 194 -154 236 -236 55 -110 61 -152 61 -419 l0 -242 -77 -37 c-43 -20 -92
-39 -110 -42 l-32 -5 -3 213 c-3 241 -10 268 -86 343 -92 93 -193 113 -369 72
-77 -18 -140 -26 -203 -26 -63 0 -126 8 -203 26 -176 41 -277 21 -369 -72 -74
-74 -83 -105 -86 -318 l-3 -188 -22 7 c-12 3 -61 13 -108 22 l-87 16 -4 90
c-4 79 -7 92 -27 108 -30 25 -76 24 -101 -1 -17 -17 -20 -33 -20 -120 0 -98 0
-100 -35 -145 -43 -57 -50 -91 -50 -240 0 -105 3 -126 24 -168 27 -57 85 -103
148 -119 35 -8 43 -15 43 -33 0 -48 43 -185 84 -270 52 -105 131 -205 216
-272 l61 -48 -3 -168 c-3 -198 -4 -200 -110 -211 -205 -23 -545 -95 -698 -148
-208 -72 -356 -199 -444 -380 -71 -144 -71 -148 -71 -678 l0 -475 24 -60 c33
-83 133 -183 216 -216 l60 -24 1565 0 1565 0 60 24 c84 34 183 133 215 216 21
53 24 81 28 240 4 173 3 181 -18 207 -27 35 -78 38 -106 7 -17 -18 -20 -42
-24 -198 -6 -193 -15 -225 -77 -282 -58 -54 -88 -63 -230 -67 l-133 -4 0 221
c0 208 -1 222 -20 241 -27 27 -81 26 -106 -1 -17 -19 -19 -41 -22 -240 l-3
-219 -388 0 -387 0 -67 498 c-37 273 -67 505 -67 514 0 10 14 37 31 62 31 43
32 44 88 43 36 0 69 7 93 19 20 10 122 92 226 182 204 174 232 209 232 289 l0
41 133 -29 c302 -65 411 -111 522 -221 126 -127 174 -255 175 -464 0 -133 12
-158 75 -158 63 0 75 25 75 159 0 245 -67 420 -219 570 -77 76 -157 128 -256
166 -145 57 -462 128 -709 160 -145 19 -140 12 -144 216 l-3 168 51 39 c62 47
132 124 177 194 l34 53 41 -37 c117 -105 274 -105 403 2 50 41 102 49 149 25
39 -21 55 -53 66 -131 12 -84 34 -131 86 -182 64 -65 113 -82 240 -86 145 -5
202 11 273 74 65 58 89 105 100 193 10 75 28 110 67 131 43 23 89 17 136 -18
116 -87 230 -109 332 -64 65 29 199 161 232 228 52 106 32 222 -58 342 -35 47
-41 93 -18 136 21 40 56 57 133 67 128 16 219 90 253 206 12 41 15 85 12 172
-3 106 -6 121 -33 169 -49 90 -119 136 -235 152 -78 11 -110 27 -131 66 -24
47 -16 99 25 149 55 67 79 128 79 205 0 93 -26 145 -124 245 -100 103 -152
130 -254 129 -75 0 -123 -20 -213 -86 -47 -35 -93 -41 -136 -18 -39 21 -57 56
-67 131 -10 81 -33 130 -86 183 -63 64 -110 80 -248 83 -82 2 -134 -2 -163
-11z m268 -154 c49 -24 76 -70 83 -141 11 -105 64 -183 153 -227 100 -49 219
-32 306 45 84 73 145 65 244 -33 104 -102 115 -171 44 -253 -93 -105 -99 -249
-14 -360 38 -50 103 -83 196 -99 128 -22 158 -61 158 -204 0 -142 -32 -185
-151 -201 -120 -17 -190 -64 -235 -156 -50 -101 -33 -217 46 -306 70 -80 59
-151 -39 -248 -97 -98 -168 -109 -248 -39 -89 79 -205 96 -306 46 -90 -44
-143 -121 -154 -227 -12 -117 -65 -159 -203 -159 -140 0 -183 34 -205 164 -8
44 -25 96 -39 121 -86 146 -286 172 -419 55 -74 -64 -149 -58 -231 20 l-50 48
17 70 c9 38 17 79 17 90 0 15 9 22 33 27 51 11 111 50 140 92 36 51 50 137 44
253 -5 103 -19 147 -60 196 l-27 32 0 258 c0 293 -7 338 -71 469 -21 44 -62
108 -89 142 -50 60 -51 62 -37 90 24 46 130 140 170 151 50 14 100 0 144 -38
132 -117 334 -90 419 55 14 25 31 77 39 121 22 130 65 164 205 164 61 0 95 -5
120 -18z m-2150 -987 c148 -35 297 -34 440 1 151 37 207 27 264 -50 19 -25 21
-45 26 -255 4 -196 7 -231 23 -254 53 -81 151 -87 307 -19 123 54 125 52 125
-99 0 -109 0 -111 -28 -135 -22 -19 -40 -24 -81 -24 -75 0 -90 -20 -105 -138
-14 -109 -54 -226 -106 -307 -93 -146 -269 -270 -456 -321 -78 -22 -290 -25
-359 -5 -208 58 -379 176 -475 326 -52 81 -92 198 -106 307 -15 118 -30 138
-105 138 -41 0 -59 5 -81 24 -27 23 -28 29 -31 123 -2 67 2 106 11 123 12 23
18 25 84 24 80 -2 132 -16 185 -50 52 -33 99 -32 140 5 l33 29 3 224 c1 122 4
233 7 245 7 31 54 84 90 99 43 19 76 17 195 -11z m16 -1752 c48 -12 110 -17
204 -17 143 0 222 14 330 58 l58 23 4 -136 c3 -115 7 -143 25 -180 13 -25 21
-46 20 -47 -1 -1 -100 -62 -219 -137 l-218 -136 -217 136 c-120 75 -219 136
-220 137 -1 1 7 22 20 47 18 37 22 65 25 180 l4 136 58 -23 c31 -13 88 -31
126 -41z m-178 -509 c119 -75 223 -142 230 -148 10 -10 -4 -24 -65 -68 -99
-70 -117 -79 -140 -71 -18 7 -348 284 -370 312 -18 21 -16 66 2 81 16 13 65
27 103 29 13 1 114 -56 240 -135z m1100 110 c25 -16 30 -60 10 -86 -27 -32
-354 -306 -374 -312 -15 -5 -36 3 -70 27 -122 83 -144 101 -134 111 6 6 108
72 228 148 l217 138 50 -6 c28 -3 60 -12 73 -20z m-1582 -153 c22 -37 382
-349 434 -376 22 -12 56 -18 91 -18 56 1 57 0 88 -43 17 -25 31 -54 31 -65 0
-11 -29 -236 -65 -499 -36 -263 -65 -486 -65 -494 0 -14 -43 -16 -389 -16
l-390 0 -3 219 c-3 199 -5 221 -22 240 -25 27 -79 28 -106 1 -19 -19 -20 -33
-20 -241 l0 -221 -132 4 c-104 3 -141 7 -168 22 -49 26 -88 64 -113 111 -21
39 -22 52 -25 465 -2 284 1 447 8 492 29 172 160 342 322 418 94 44 185 71
368 110 l125 27 6 -52 c3 -29 15 -66 25 -84z m939 -253 c41 -29 74 -57 74 -62
1 -5 -10 -24 -25 -43 l-25 -33 -99 0 -99 0 -25 33 c-15 19 -26 38 -26 43 1 7
135 110 148 113 2 1 37 -23 77 -51z m0 -320 c7 -45 125 -915 125 -928 0 -6
-69 -10 -200 -10 -131 0 -200 4 -200 10 0 16 120 901 126 933 5 26 7 27 74 27
l69 0 6 -32z"/>
<path d="M3610 4339 c-179 -18 -334 -104 -450 -248 -124 -154 -171 -369 -125
-568 28 -121 78 -207 180 -308 139 -140 270 -195 465 -195 161 0 291 44 407
137 166 132 253 313 253 524 0 191 -56 325 -190 460 -47 47 -110 100 -140 117
-118 66 -260 94 -400 81z m236 -172 c110 -40 202 -113 266 -211 103 -159 106
-384 7 -541 -99 -158 -254 -245 -439 -245 -233 0 -427 145 -494 370 -22 72
-22 208 0 280 47 159 163 284 313 341 102 38 250 40 347 6z"/>
</g>
</svg>
