<?xml version="1.0" standalone="no"?>
<!DOCTYPE svg PUBLIC "-//W3C//DTD SVG 20010904//EN"
 "http://www.w3.org/TR/2001/REC-SVG-20010904/DTD/svg10.dtd">
<svg version="1.0" xmlns="http://www.w3.org/2000/svg"
 width="512.000000pt" height="512.000000pt" viewBox="0 0 512.000000 512.000000"
 preserveAspectRatio="xMidYMid meet">

<g transform="translate(0.000000,512.000000) scale(0.100000,-0.100000)"
fill="#000000" stroke="none">
<path d="M1275 4946 c-205 -40 -371 -131 -516 -284 -94 -99 -158 -202 -202
-326 -18 -52 -50 -204 -88 -421 -37 -206 -72 -373 -89 -425 -48 -140 -62 -217
-62 -335 0 -158 28 -268 112 -434 22 -44 36 -83 30 -86 -5 -3 -29 -36 -53 -73
-47 -71 -90 -169 -106 -242 -5 -25 -40 -345 -76 -712 l-67 -667 91 -150 90
-151 -65 0 c-56 0 -68 -4 -89 -25 -25 -24 -25 -26 -25 -215 0 -189 0 -191 25
-215 l24 -25 2351 0 2351 0 24 25 25 24 0 992 c0 749 -3 1002 -12 1033 -16 55
-99 138 -154 154 -26 7 -108 12 -216 12 l-176 0 159 633 c87 347 159 642 159
653 0 49 -27 63 -210 109 -96 25 -185 45 -196 45 -56 0 -56 1 -223 -665 l-157
-630 -112 -40 -113 -40 -155 -195 c-86 -107 -157 -196 -159 -198 -5 -5 -454
-132 -467 -132 -7 0 -78 118 -158 262 -160 290 -200 350 -284 424 l-57 52 30
61 c74 145 103 263 103 416 0 119 -14 195 -62 335 -17 52 -50 210 -84 405 -62
352 -88 454 -147 563 -68 128 -188 263 -302 341 -71 48 -200 106 -292 131
-103 28 -300 35 -400 16z m360 -170 c87 -23 231 -97 302 -156 110 -91 217
-256 252 -385 5 -22 35 -182 66 -355 54 -305 63 -348 120 -530 51 -163 32
-357 -50 -519 l-36 -72 -82 45 c-45 24 -149 82 -231 128 l-149 83 -19 57 -19
57 94 93 c102 100 150 180 183 303 21 79 30 398 15 520 -28 225 -181 389 -397
426 -38 7 -81 9 -96 6 -17 -5 -50 -35 -87 -81 -93 -113 -174 -182 -276 -232
-105 -51 -180 -72 -288 -81 -55 -4 -85 -12 -103 -25 l-24 -19 0 -228 c0 -255
7 -298 67 -421 28 -58 57 -96 126 -165 l90 -89 -20 -60 -19 -61 -229 -127
c-126 -71 -230 -128 -232 -128 -1 0 -19 31 -38 70 -83 165 -101 355 -50 520
57 182 66 225 120 530 65 366 66 371 111 470 102 220 308 383 554 435 81 18
262 13 345 -9z m112 -492 c64 -31 135 -108 158 -172 22 -61 32 -349 16 -477
-26 -216 -174 -381 -379 -424 -239 -50 -481 94 -552 328 -18 57 -20 89 -18
226 l3 159 70 12 c39 7 73 13 78 13 4 1 7 -14 7 -33 0 -25 7 -40 26 -55 35
-27 66 -26 100 2 33 28 37 76 9 107 -10 11 -16 22 -14 24 2 1 31 17 64 35 95
50 193 129 264 213 74 87 73 87 168 42z m2711 -640 c37 -9 71 -20 75 -24 8 -7
-580 -2378 -593 -2393 -7 -8 -139 20 -153 33 -6 5 564 2320 588 2388 5 15 3
15 83 -4z m-3143 -589 c102 -21 218 -17 307 11 13 4 20 -5 29 -36 7 -24 9 -44
3 -49 -5 -4 -55 -43 -111 -85 l-103 -77 -102 77 c-57 42 -107 81 -112 85 -8 7
8 89 17 89 1 0 34 -7 72 -15z m-75 -285 l120 -91 0 -211 c0 -206 0 -210 -18
-187 -43 57 -342 489 -347 501 -4 10 13 25 52 46 32 17 62 32 66 32 4 0 62
-41 127 -90z m592 58 c40 -21 57 -36 53 -45 -5 -13 -303 -445 -347 -502 -18
-23 -18 -19 -18 187 l0 211 118 90 c64 49 121 90 126 90 4 1 35 -13 68 -31z
m-712 -510 c281 -402 287 -409 344 -394 19 5 93 103 292 389 147 210 271 386
275 391 10 11 269 -131 331 -182 75 -62 106 -108 288 -434 143 -256 180 -314
202 -322 22 -8 76 4 283 63 141 40 258 71 259 69 2 -1 26 -61 54 -131 l51
-128 -280 -139 -279 -140 -179 0 -179 0 -218 125 c-121 69 -223 126 -228 128
-4 1 8 32 27 67 58 107 72 162 72 280 0 110 -13 166 -61 261 -28 56 -100 149
-116 149 -14 0 -108 -90 -108 -103 0 -5 14 -25 31 -45 18 -20 46 -66 63 -102
28 -58 31 -74 31 -160 0 -86 -3 -102 -31 -161 -17 -36 -52 -89 -78 -117 l-46
-53 0 -227 0 -228 -163 -65 -163 -65 -294 67 c-162 38 -305 71 -317 74 -23 5
-23 6 -23 225 l0 219 -46 53 c-26 28 -61 81 -78 117 -27 58 -31 76 -31 156 0
105 19 167 74 240 20 26 40 54 46 61 7 10 -3 27 -40 64 -27 27 -55 50 -62 50
-21 0 -94 -100 -130 -178 -87 -187 -61 -411 67 -577 l40 -52 0 -166 c0 -92 -3
-167 -7 -167 -5 0 -44 9 -88 19 -137 33 -125 37 -146 -49 -9 -41 -17 -76 -16
-77 1 -1 184 -44 407 -95 l405 -93 3 -148 3 -147 -418 0 -418 0 -102 169 -101
170 64 643 c50 503 69 658 86 712 27 86 102 200 164 251 50 41 194 127 206
123 4 -2 129 -177 278 -390z m2760 22 c0 -6 -37 -156 -81 -335 l-81 -325 -32
0 c-32 0 -33 1 -81 123 -27 67 -54 136 -61 153 -13 30 -12 32 122 200 122 153
163 192 202 194 6 0 12 -5 12 -10z m605 -180 l0 -80 -81 0 -82 0 20 80 20 80
62 0 61 0 0 -80z m290 55 c50 -49 15 -135 -55 -135 -41 0 -80 39 -80 80 0 41
39 80 80 80 19 0 40 -9 55 -25z m25 -932 l0 -643 -440 0 -440 0 0 80 0 80 335
0 336 0 24 25 25 24 0 538 0 538 80 0 80 0 0 -642z m-320 157 l0 -480 -335 0
-336 0 -24 -25 c-24 -23 -25 -29 -25 -160 l0 -135 -720 0 -720 0 0 137 0 136
-120 122 -121 122 3 151 3 152 227 -130 228 -130 220 0 220 0 320 160 c192 96
331 160 349 160 l29 0 -39 -152 c-21 -84 -39 -163 -39 -176 0 -47 36 -65 223
-111 187 -45 217 -47 241 -8 7 12 60 208 116 435 l102 412 99 0 99 0 0 -480z
m-2407 -508 l87 -87 0 -103 0 -102 -320 0 -320 0 0 128 0 129 48 -10 c45 -8
55 -5 217 61 94 39 177 71 185 71 9 1 55 -38 103 -87z m2727 -532 l0 -80
-2240 0 -2240 0 0 80 0 80 2240 0 2240 0 0 -80z"/>
<path d="M1636 3979 c-20 -16 -26 -29 -26 -59 0 -70 72 -103 126 -57 20 17 27
33 27 57 0 24 -7 40 -27 57 -34 28 -65 29 -100 2z"/>
<path d="M1448 3703 c-6 -75 -36 -103 -109 -103 l-49 0 0 -80 0 -80 53 0 c71
0 119 15 169 53 56 43 86 105 94 195 l7 72 -80 0 -81 0 -4 -57z"/>
</g>
</svg>
